<?xml version="1.0" standalone="no"?>
<!DOCTYPE svg PUBLIC "-//W3C//DTD SVG 20010904//EN"
 "http://www.w3.org/TR/2001/REC-SVG-20010904/DTD/svg10.dtd">
<svg version="1.0" xmlns="http://www.w3.org/2000/svg"
 width="308.000000pt" height="200.000000pt" viewBox="0 0 308.000000 200.000000"
 preserveAspectRatio="xMidYMid meet">
<metadata>
Created by potrace 1.15, written by Peter Selinger 2001-2017
</metadata>
<g transform="translate(0.000000,200.000000) scale(0.100000,-0.100000)"
fill="#000000" stroke="none">
<path d="M226 1260 c-98 -39 -149 -88 -198 -195 -31 -67 -34 -241 -5 -293 27
-50 83 -108 118 -123 18 -7 42 -23 55 -36 58 -57 189 -81 267 -48 30 12 53 13
129 5 148 -15 157 -15 164 18 3 15 10 38 14 52 l9 25 7 -23 c6 -21 11 -23 43
-17 136 26 191 29 191 11 0 -9 -21 -15 -70 -20 -67 -7 -70 -8 -70 -33 0 -26 0
-26 63 -20 34 4 86 10 115 13 45 6 52 4 52 -10 0 -15 12 -16 103 -14 l102 3 5
50 c4 42 7 46 14 27 5 -17 13 -21 24 -16 10 3 54 14 100 24 46 10 85 20 89 23
3 3 -17 47 -45 97 l-51 90 25 17 c14 9 37 36 51 60 21 36 26 58 26 111 1 37
-5 78 -12 90 -7 13 -10 26 -8 29 3 3 13 -9 21 -26 11 -21 16 -58 16 -123 0
-100 -10 -126 -62 -167 l-27 -21 40 -69 c21 -37 39 -80 39 -94 0 -23 -5 -27
-57 -37 -77 -15 -83 -17 -83 -32 1 -35 17 -42 67 -30 26 6 66 14 88 18 47 8
81 23 53 24 -10 0 -18 6 -18 14 0 10 25 16 103 21 56 4 131 10 167 14 l65 6
10 84 c9 74 12 82 24 67 11 -12 12 -34 7 -93 -4 -43 -9 -79 -10 -81 -2 -1 -75
-8 -162 -15 -153 -12 -159 -13 -162 -34 -3 -22 0 -23 60 -22 35 1 122 6 193
13 l130 11 3 40 c1 22 5 50 7 63 6 23 6 23 38 5 18 -10 34 -21 37 -24 3 -4 48
-6 100 -5 76 1 103 6 136 23 82 44 153 153 154 237 l1 31 19 -24 c20 -23 19
-71 -2 -79 -4 -2 -8 -16 -8 -31 0 -31 -43 -96 -85 -129 -49 -39 -108 -55 -187
-50 -40 3 -82 9 -92 13 -14 6 -17 5 -11 -4 4 -7 31 -24 59 -37 87 -41 197 -30
277 27 26 18 28 18 110 -6 91 -28 133 -30 208 -14 99 21 166 96 178 200 6 54
-17 133 -46 158 -17 14 -14 14 64 -5 24 -6 25 -4 25 37 0 24 3 67 6 94 6 47 5
52 -20 62 -14 7 -27 9 -30 5 -2 -4 -8 -40 -12 -81 l-7 -73 -31 6 c-75 16 -114
17 -154 7 -49 -14 -69 -7 -50 16 10 12 28 14 88 10 41 -3 84 -8 96 -12 20 -6
22 -2 28 72 4 43 9 87 12 99 5 18 -2 23 -53 37 -158 45 -313 -6 -373 -121 -11
-22 -13 -22 -29 -8 -10 9 -21 13 -24 9 -4 -3 -7 1 -7 10 0 22 -66 74 -119 92
-72 24 -177 20 -239 -11 -102 -51 -153 -136 -160 -266 l-4 -88 -30 0 c-27 0
-29 2 -24 33 3 17 8 73 11 122 3 50 8 109 12 133 5 41 5 42 -25 42 -35 0 -37
-6 -47 -165 -9 -139 -16 -175 -31 -175 -8 0 -14 8 -14 18 1 44 30 349 36 370
l6 22 -131 0 -131 0 0 -67 c0 -63 -1 -65 -18 -50 -10 10 -22 14 -25 10 -4 -3
-7 1 -7 10 0 23 -70 72 -132 93 -62 20 -224 15 -305 -10 l-53 -17 -1 -107 c0
-59 -4 -127 -7 -151 -7 -42 -8 -41 -42 83 -31 114 -37 126 -57 126 -13 0 -23
-2 -23 -5 0 -3 26 -96 59 -208 63 -219 74 -267 63 -267 -9 0 -152 496 -152
528 0 21 -3 22 -109 22 -166 0 -163 1 -188 -83 -19 -64 -21 -68 -22 -35 -1 27
-6 38 -21 43 -32 10 -37 0 -45 -80 l-7 -75 -51 0 c-94 0 -167 -61 -167 -139
-1 -34 -2 -35 -15 -17 -34 44 -5 130 54 161 17 8 55 15 89 15 l59 0 10 83 c5
45 13 89 17 98 5 13 -2 20 -34 33 -54 22 -153 20 -214 -4z m215 -16 c11 -6 5
-126 -7 -159 -3 -7 -29 -15 -58 -18 -101 -10 -156 -61 -156 -145 0 -62 32 -92
100 -92 28 0 67 7 87 15 20 8 37 14 39 13 1 -2 -3 -46 -9 -98 l-12 -94 -40
-12 c-115 -35 -239 -5 -306 75 -44 50 -59 98 -59 183 0 161 91 296 227 334 47
14 171 12 194 -2z m984 -15 c30 -15 62 -42 79 -67 60 -85 42 -228 -35 -283
-16 -11 -29 -25 -29 -30 0 -6 21 -46 46 -90 35 -60 44 -83 34 -89 -7 -4 -46
-13 -88 -20 -87 -14 -80 -19 -118 93 -25 75 -26 77 -58 77 l-33 0 -6 -86 c-3
-48 -8 -88 -9 -89 -2 -2 -40 -5 -85 -7 l-83 -3 0 146 c0 80 3 214 7 297 l6
151 61 15 c38 9 99 14 161 13 86 -2 108 -6 150 -28z m-575 -3 c24 -64 160
-548 156 -555 -3 -5 -38 -12 -78 -15 -40 -4 -83 -10 -95 -13 -19 -4 -24 1 -36
44 l-14 48 -56 3 -55 3 -7 -38 c-10 -64 -10 -63 -120 -52 -55 6 -100 11 -101
12 -3 3 154 529 165 554 9 21 18 23 113 26 57 1 106 4 111 5 4 1 12 -9 17 -22z
m956 7 c-2 -10 -10 -90 -16 -178 -6 -88 -13 -170 -16 -182 -4 -23 -2 -23 86
-23 l91 0 -6 -82 c-5 -52 -12 -87 -21 -94 -8 -6 -65 -14 -126 -18 -62 -4 -137
-10 -165 -13 l-53 -6 0 125 c0 69 3 207 7 306 l6 182 109 0 c99 0 109 -2 104
-17z m1074 4 l45 -12 -3 -75 c-2 -41 -7 -78 -11 -82 -4 -4 -34 -3 -67 3 -68
12 -122 3 -138 -25 -18 -28 16 -45 88 -43 72 1 118 -19 146 -66 39 -63 19
-200 -36 -249 -71 -63 -201 -79 -318 -39 l-68 23 7 77 c4 42 9 78 11 80 2 2
15 -1 28 -7 41 -18 139 -32 170 -24 37 10 56 36 39 53 -7 7 -43 16 -79 21
-122 14 -174 63 -174 162 0 92 54 167 146 200 47 18 152 19 214 3z m-522 -33
c120 -59 170 -196 126 -344 -30 -101 -149 -190 -254 -190 -46 0 -124 28 -168
61 -63 47 -94 106 -100 194 -8 126 45 227 147 280 68 35 177 35 249 -1z
m-1853 -256 c-4 -18 -13 -48 -21 -68 -10 -27 -13 -30 -13 -12 -1 27 1 27 -52
2 -62 -28 -99 -27 -99 3 0 55 69 107 143 107 l49 0 -7 -32z m275 -238 c0 -5
-15 -10 -34 -10 -33 0 -35 -2 -42 -45 -3 -25 -9 -47 -13 -49 -3 -2 -58 1 -121
8 -94 10 -123 10 -159 -1 -56 -16 -146 -16 -191 2 -35 14 -35 14 20 8 36 -3
78 0 118 11 52 13 78 14 171 4 60 -6 116 -8 124 -5 8 3 18 24 22 46 l7 41 49
0 c27 0 49 -4 49 -10z"/>
<path d="M1230 1030 c0 -100 2 -102 65 -76 46 20 69 57 61 101 -8 43 -39 65
-88 65 l-38 0 0 -90z"/>
<path d="M2173 1035 c-52 -37 -50 -132 4 -175 36 -28 67 -25 105 9 29 26 33
36 33 79 0 40 -5 56 -24 76 -28 30 -83 35 -118 11z"/>
<path d="M2985 914 c50 -120 12 -244 -91 -295 -63 -30 -171 -37 -245 -16 -29
9 -55 14 -57 12 -11 -11 16 -26 89 -50 102 -34 179 -32 261 8 80 39 112 88
116 182 5 82 -11 127 -55 159 -26 19 -26 19 -18 0z"/>
</g>
</svg>
